<svg xmlns="http://www.w3.org/2000/svg" xmlns:xlink="http://www.w3.org/1999/xlink" width="1080" height="1080" viewBox="0 0 1080 1080"><defs><linearGradient id="a" x2="1" y2="1" gradientUnits="objectBoundingBox"><stop offset="0" stop-color="#6060c5"/><stop offset="1" stop-color="#0d0d1f"/></linearGradient><clipPath id="c"><rect width="1080" height="1080"/></clipPath></defs><g id="b" clip-path="url(#c)"><rect width="1080" height="1080" rx="182" fill="url(#a)"/><rect width="900" height="900" rx="90" transform="translate(90 90)" fill="#fff"/><path d="M-299.925-297.9q2.25-23.85,25.65-23.85h40.5q21.15,0,27.9,20.25l40.05,115.65q2.7,7.65,5.625,16.875t5.175,17.325l5.4,18.9h.9l5.4-18.9q2.25-8.1,5.175-17.325t5.625-16.875l40.05-115.65q6.75-20.25,27.9-20.25h40.5q23.4,0,25.65,23.85L23.625-25.65q.9,12.15-5.175,18.9T.225,0h-29.25q-23.4,0-25.65-23.85l-8.1-121.05q-.9-9-1.125-18.675t.225-17.325q0-9,.9-18h-.9q-3.15,9.9-6.3,19.35L-75.825-162q-3.15,9.45-5.85,17.1l-26.55,73.35q-7.2,19.8-28.35,19.8h-25.2q-21.15,0-28.35-19.8l-26.55-73.35q-2.7-7.65-5.85-17.1l-5.85-17.55q-3.15-9.45-6.3-19.35h-.9q0,9,.45,18,0,7.65.225,17.325a152.11,152.11,0,0,1-.675,18.675l-8.1,121.05Q-245.925,0-269.325,0h-29.7q-12.15,0-18.225-6.75t-5.175-18.9Zm343.8,136.35q0-35.1,12.375-65.25A158.253,158.253,0,0,1,90.9-279.225a161.773,161.773,0,0,1,53.325-35.1q31.05-12.825,68.4-12.825a187.508,187.508,0,0,1,34.2,2.925,201.1,201.1,0,0,1,28.8,7.425,150.481,150.481,0,0,1,22.95,9.9,196.525,196.525,0,0,1,17.1,10.35q9.45,6.75,10.575,15.525t-5.175,18.675l-11.25,18.45q-6.3,10.35-14.85,11.7t-18.9-4.95a203.052,203.052,0,0,0-26.55-12.15,92.484,92.484,0,0,0-33.3-5.85q-24.3,0-41.4,7.875a81.249,81.249,0,0,0-28.125,20.7,82.322,82.322,0,0,0-16.2,29.25,112.389,112.389,0,0,0-5.175,33.975,118.053,118.053,0,0,0,5.4,35.325,91.372,91.372,0,0,0,16.65,31.05,83.074,83.074,0,0,0,28.35,22.05q17.1,8.325,40.5,8.325a91.174,91.174,0,0,0,37.125-7.425A172.255,172.255,0,0,0,281.925-89.55q21.15-14.85,34.65,4.5l12.6,17.55q6.3,9.45,5.625,18.45t-9.675,16.2q-7.65,5.85-18.45,12.6A154.975,154.975,0,0,1,281.7-7.875a205.712,205.712,0,0,1-31.5,9.45A174.219,174.219,0,0,1,212.625,5.4q-38.7,0-69.975-12.6T89.325-42.3a153.4,153.4,0,0,1-33.75-52.875Q43.875-125.55,43.875-161.55Z" transform="translate(533.541 701.15)"/></g></svg>